<svg width="24" height="28" viewBox="0 0 24 28" fill="none" xmlns="http://www.w3.org/2000/svg">
<path d="M12 28C13.65 28 15 26.7077 15 25.1282H9C9 26.7077 10.35 28 12 28ZM21 19.3846V12.2051C21 7.79692 18.555 4.10667 14.25 3.13026V2.15385C14.25 0.962051 13.245 0 12 0C10.755 0 9.75 0.962051 9.75 2.15385V3.13026C5.46 4.10667 3 7.78256 3 12.2051V19.3846L0 22.2564V23.6923H24V22.2564L21 19.3846ZM18 20.8205H6V12.2051C6 8.6441 8.265 5.74359 12 5.74359C15.735 5.74359 18 8.6441 18 12.2051V20.8205Z" fill="black" fill-opacity="0.5"/>
</svg>
