<svg width="14" height="14" viewBox="0 0 14 14" fill="none" xmlns="http://www.w3.org/2000/svg">
<path d="M5.25 12.8333C5.57217 12.8333 5.83334 12.5722 5.83334 12.25C5.83334 11.9278 5.57217 11.6667 5.25 11.6667C4.92784 11.6667 4.66667 11.9278 4.66667 12.25C4.66667 12.5722 4.92784 12.8333 5.25 12.8333Z" stroke="#E2D8D8" stroke-linecap="round" stroke-linejoin="round"/>
<path d="M11.6667 12.8333C11.9888 12.8333 12.25 12.5722 12.25 12.25C12.25 11.9278 11.9888 11.6667 11.6667 11.6667C11.3445 11.6667 11.0833 11.9278 11.0833 12.25C11.0833 12.5722 11.3445 12.8333 11.6667 12.8333Z" stroke="#E2D8D8" stroke-linecap="round" stroke-linejoin="round"/>
<path d="M0.583336 0.583332H2.91667L4.48 8.39417C4.53335 8.66273 4.67945 8.90398 4.89274 9.07567C5.10603 9.24737 5.37291 9.33858 5.64667 9.33333H11.3167C11.5904 9.33858 11.8573 9.24737 12.0706 9.07567C12.2839 8.90398 12.43 8.66273 12.4833 8.39417L13.4167 3.5H3.5" stroke="#E2D8D8" stroke-linecap="round" stroke-linejoin="round"/>
</svg>
