<svg width="26" height="26" viewBox="0 0 26 26" fill="none" xmlns="http://www.w3.org/2000/svg">
<path d="M20.5833 11.9167H5.41667C4.22005 11.9167 3.25 12.8867 3.25 14.0833V21.6667C3.25 22.8633 4.22005 23.8333 5.41667 23.8333H20.5833C21.78 23.8333 22.75 22.8633 22.75 21.6667V14.0833C22.75 12.8867 21.78 11.9167 20.5833 11.9167Z" stroke="black" stroke-opacity="0.5" stroke-width="2" stroke-linecap="round" stroke-linejoin="round"/>
<path d="M7.5835 11.9167V7.58332C7.5835 6.14673 8.15418 4.76898 9.17 3.75316C10.1858 2.73734 11.5636 2.16666 13.0002 2.16666C14.4368 2.16666 15.8145 2.73734 16.8303 3.75316C17.8461 4.76898 18.4168 6.14673 18.4168 7.58332V11.9167" stroke="black" stroke-opacity="0.5" stroke-width="2" stroke-linecap="round" stroke-linejoin="round"/>
</svg>
