<svg width="17" height="17" viewBox="0 0 17 17" fill="none" xmlns="http://www.w3.org/2000/svg">
<path d="M6.37484 15.5834C6.76604 15.5834 7.08317 15.2662 7.08317 14.875C7.08317 14.4838 6.76604 14.1667 6.37484 14.1667C5.98363 14.1667 5.6665 14.4838 5.6665 14.875C5.6665 15.2662 5.98363 15.5834 6.37484 15.5834Z" stroke="black" stroke-opacity="0.6" stroke-linecap="round" stroke-linejoin="round"/>
<path d="M14.1668 15.5834C14.558 15.5834 14.8752 15.2662 14.8752 14.875C14.8752 14.4838 14.558 14.1667 14.1668 14.1667C13.7756 14.1667 13.4585 14.4838 13.4585 14.875C13.4585 15.2662 13.7756 15.5834 14.1668 15.5834Z" stroke="black" stroke-opacity="0.6" stroke-linecap="round" stroke-linejoin="round"/>
<path d="M0.708496 0.708313H3.54183L5.44016 10.1929C5.50494 10.519 5.68235 10.812 5.94134 11.0204C6.20033 11.2289 6.52441 11.3397 6.85683 11.3333H13.7418C14.0743 11.3397 14.3983 11.2289 14.6573 11.0204C14.9163 10.812 15.0937 10.519 15.1585 10.1929L16.2918 4.24998H4.25016" stroke="black" stroke-opacity="0.6" stroke-linecap="round" stroke-linejoin="round"/>
</svg>
